<svg xmlns="http://www.w3.org/2000/svg" xmlns:xlink="http://www.w3.org/1999/xlink" width="1920" zoomAndPan="magnify" viewBox="0 0 1440 809.999993" height="1080" preserveAspectRatio="xMidYMid meet" version="1.0"><defs><g/></defs><path stroke-linecap="round" transform="matrix(0.75, -0.000000000000000558, 0.000000000000000558, 0.75, 45.225918, 311.329605)" fill="none" stroke-linejoin="miter" d="M 21.50086 21.498028 L 125.334199 21.498028 " stroke="#cb6ce6" stroke-width="43" stroke-opacity="1" stroke-miterlimit="4"/><path stroke-linecap="round" transform="matrix(0.75, -0.00000000000000093, 0.00000000000000093, 0.75, 167.408729, 311.329605)" fill="none" stroke-linejoin="miter" d="M 21.501904 21.498028 L 66.199823 21.498028 " stroke="#ff66c4" stroke-width="43" stroke-opacity="1" stroke-miterlimit="4"/><path stroke-linecap="round" transform="matrix(0.75, 0.000000000000000361, -0.000000000000000361, 0.75, 245.275863, 311.329605)" fill="none" stroke-linejoin="miter" d="M 21.501975 21.498028 L 214.824901 21.498028 " stroke="#5271ff" stroke-width="43" stroke-opacity="1" stroke-miterlimit="4"/><path stroke-linecap="round" transform="matrix(0.75, -0.000000000000000186, 0.000000000000000186, 0.75, 45.225918, 364.243506)" fill="none" stroke-linejoin="miter" d="M 21.50086 21.498242 L 481.558175 21.498242 " stroke="#8c52ff" stroke-width="43" stroke-opacity="1" stroke-miterlimit="4"/><path stroke-linecap="round" transform="matrix(0.75, 0.000000000000000407, -0.000000000000000407, 0.75, 45.225918, 417.157415)" fill="none" stroke-linejoin="miter" d="M 21.50086 21.498448 L 397.079004 21.498448 " stroke="#5e17eb" stroke-width="43" stroke-opacity="1" stroke-miterlimit="4"/><path stroke-linecap="round" transform="matrix(0.75, 0, 0, 0.75, 368.872576, 417.157415)" fill="none" stroke-linejoin="miter" d="M 21.498024 21.498448 L 50.029276 21.498448 " stroke="#cb6ce6" stroke-width="43" stroke-opacity="1" stroke-miterlimit="4"/><path stroke-linecap="round" transform="matrix(0.75, 0, 0, 0.75, 191.970625, 470.071292)" fill="none" stroke-linejoin="miter" d="M 21.497501 21.498695 L 284.981889 21.498695 " stroke="#5271ff" stroke-width="43" stroke-opacity="1" stroke-miterlimit="4"/><path stroke-linecap="round" transform="matrix(0.75, 0, 0, 0.75, 45.225918, 470.071292)" fill="none" stroke-linejoin="miter" d="M 21.50086 21.498695 L 158.886284 21.498695 " stroke="#5e17eb" stroke-width="43" stroke-opacity="1" stroke-miterlimit="4"/><g fill="#ffffff" fill-opacity="1"><g transform="translate(459.425765, 448.247927)"><g><path d="M 75.71875 -104.3125 L 75.71875 -93.234375 L 47.296875 -93.234375 L 47.296875 0 L 33.671875 0 L 33.671875 -93.234375 L 5.09375 -93.234375 L 5.09375 -104.3125 Z M 75.71875 -104.3125 "/></g></g></g><g fill="#ffffff" fill-opacity="1"><g transform="translate(540.384941, 448.247927)"><g><path d="M 84.25 -82.015625 L 84.25 0 L 70.640625 0 L 70.640625 -12.125 C 68.046875 -7.9375 64.425781 -4.664062 59.78125 -2.3125 C 55.144531 0.03125 50.035156 1.203125 44.453125 1.203125 C 38.066406 1.203125 32.328125 -0.117188 27.234375 -2.765625 C 22.148438 -5.410156 18.132812 -9.375 15.1875 -14.65625 C 12.25 -19.945312 10.78125 -26.382812 10.78125 -33.96875 L 10.78125 -82.015625 L 24.25 -82.015625 L 24.25 -35.765625 C 24.25 -27.679688 26.289062 -21.46875 30.375 -17.125 C 34.46875 -12.789062 40.054688 -10.625 47.140625 -10.625 C 54.421875 -10.625 60.15625 -12.867188 64.34375 -17.359375 C 68.539062 -21.847656 70.640625 -28.382812 70.640625 -36.96875 L 70.640625 -82.015625 Z M 84.25 -82.015625 "/></g></g></g><g fill="#ffffff" fill-opacity="1"><g transform="translate(636.159209, 448.247927)"><g><path d="M 25.140625 -68.6875 C 27.535156 -73.375 30.953125 -77.015625 35.390625 -79.609375 C 39.828125 -82.210938 45.238281 -83.515625 51.625 -83.515625 L 51.625 -69.4375 L 48.046875 -69.4375 C 32.773438 -69.4375 25.140625 -61.15625 25.140625 -44.59375 L 25.140625 0 L 11.53125 0 L 11.53125 -82.015625 L 25.140625 -82.015625 Z M 25.140625 -68.6875 "/></g></g></g><g fill="#ffffff" fill-opacity="1"><g transform="translate(691.977649, 448.247927)"><g><path d="M 51.484375 -83.515625 C 61.460938 -83.515625 69.539062 -80.492188 75.71875 -74.453125 C 81.90625 -68.421875 85 -59.71875 85 -48.34375 L 85 0 L 71.53125 0 L 71.53125 -46.390625 C 71.53125 -54.578125 69.484375 -60.835938 65.390625 -65.171875 C 61.304688 -69.515625 55.722656 -71.6875 48.640625 -71.6875 C 41.453125 -71.6875 35.738281 -69.441406 31.5 -64.953125 C 27.257812 -60.460938 25.140625 -53.925781 25.140625 -45.34375 L 25.140625 0 L 11.53125 0 L 11.53125 -82.015625 L 25.140625 -82.015625 L 25.140625 -70.34375 C 27.835938 -74.53125 31.503906 -77.769531 36.140625 -80.0625 C 40.773438 -82.363281 45.890625 -83.515625 51.484375 -83.515625 Z M 51.484375 -83.515625 "/></g></g></g><g fill="#ffffff" fill-opacity="1"><g transform="translate(787.751918, 448.247927)"><g><path d="M 47.296875 1.34375 C 39.609375 1.34375 32.644531 -0.398438 26.40625 -3.890625 C 20.175781 -7.378906 15.289062 -12.34375 11.75 -18.78125 C 8.207031 -25.21875 6.4375 -32.675781 6.4375 -41.15625 C 6.4375 -49.539062 8.253906 -56.945312 11.890625 -63.375 C 15.535156 -69.8125 20.5 -74.75 26.78125 -78.1875 C 33.070312 -81.632812 40.109375 -83.359375 47.890625 -83.359375 C 55.671875 -83.359375 62.703125 -81.632812 68.984375 -78.1875 C 75.273438 -74.75 80.238281 -69.835938 83.875 -63.453125 C 87.519531 -57.066406 89.34375 -49.632812 89.34375 -41.15625 C 89.34375 -32.675781 87.472656 -25.21875 83.734375 -18.78125 C 79.992188 -12.34375 74.929688 -7.378906 68.546875 -3.890625 C 62.160156 -0.398438 55.078125 1.34375 47.296875 1.34375 Z M 47.296875 -10.625 C 52.179688 -10.625 56.769531 -11.769531 61.0625 -14.0625 C 65.351562 -16.363281 68.816406 -19.804688 71.453125 -24.390625 C 74.097656 -28.984375 75.421875 -34.570312 75.421875 -41.15625 C 75.421875 -47.738281 74.125 -53.320312 71.53125 -57.90625 C 68.9375 -62.5 65.546875 -65.914062 61.359375 -68.15625 C 57.171875 -70.40625 52.628906 -71.53125 47.734375 -71.53125 C 42.742188 -71.53125 38.179688 -70.40625 34.046875 -68.15625 C 29.910156 -65.914062 26.59375 -62.5 24.09375 -57.90625 C 21.601562 -53.320312 20.359375 -47.738281 20.359375 -41.15625 C 20.359375 -34.46875 21.578125 -28.828125 24.015625 -24.234375 C 26.460938 -19.648438 29.726562 -16.234375 33.8125 -13.984375 C 37.90625 -11.742188 42.398438 -10.625 47.296875 -10.625 Z M 47.296875 -10.625 "/></g></g></g><g fill="#ffffff" fill-opacity="1"><g transform="translate(883.526186, 448.247927)"><g><path d="M 117.328125 -103.5625 L 117.328125 0 L 103.71875 0 L 103.71875 -77.21875 L 69.296875 0 L 59.71875 0 L 25.140625 -77.375 L 25.140625 0 L 11.53125 0 L 11.53125 -103.5625 L 26.1875 -103.5625 L 64.5 -17.953125 L 102.8125 -103.5625 Z M 117.328125 -103.5625 "/></g></g></g><g fill="#ffffff" fill-opacity="1"><g transform="translate(1012.372521, 448.247927)"><g><path d="M 6.4375 -41.3125 C 6.4375 -49.6875 8.128906 -57.039062 11.515625 -63.375 C 14.910156 -69.707031 19.578125 -74.617188 25.515625 -78.109375 C 31.453125 -81.609375 38.0625 -83.359375 45.34375 -83.359375 C 52.53125 -83.359375 58.765625 -81.8125 64.046875 -78.71875 C 69.335938 -75.625 73.28125 -71.734375 75.875 -67.046875 L 75.875 -82.015625 L 89.640625 -82.015625 L 89.640625 0 L 75.875 0 L 75.875 -15.265625 C 73.175781 -10.472656 69.160156 -6.503906 63.828125 -3.359375 C 58.492188 -0.222656 52.285156 1.34375 45.203125 1.34375 C 37.910156 1.34375 31.320312 -0.445312 25.4375 -4.03125 C 19.550781 -7.625 14.910156 -12.664062 11.515625 -19.15625 C 8.128906 -25.644531 6.4375 -33.03125 6.4375 -41.3125 Z M 75.875 -41.15625 C 75.875 -47.34375 74.625 -52.726562 72.125 -57.3125 C 69.632812 -61.90625 66.269531 -65.421875 62.03125 -67.859375 C 57.789062 -70.304688 53.128906 -71.53125 48.046875 -71.53125 C 42.953125 -71.53125 38.3125 -70.332031 34.125 -67.9375 C 29.9375 -65.550781 26.59375 -62.0625 24.09375 -57.46875 C 21.601562 -52.875 20.359375 -47.488281 20.359375 -41.3125 C 20.359375 -35.019531 21.601562 -29.550781 24.09375 -24.90625 C 26.59375 -20.269531 29.9375 -16.726562 34.125 -14.28125 C 38.3125 -11.84375 42.953125 -10.625 48.046875 -10.625 C 53.128906 -10.625 57.789062 -11.84375 62.03125 -14.28125 C 66.269531 -16.726562 69.632812 -20.269531 72.125 -24.90625 C 74.625 -29.550781 75.875 -34.96875 75.875 -41.15625 Z M 75.875 -41.15625 "/></g></g></g><g fill="#ffffff" fill-opacity="1"><g transform="translate(1113.534118, 448.247927)"><g><path d="M 40.5625 1.34375 C 34.269531 1.34375 28.628906 0.269531 23.640625 -1.875 C 18.648438 -4.019531 14.707031 -7.007812 11.8125 -10.84375 C 8.925781 -14.6875 7.332031 -19.101562 7.03125 -24.09375 L 21.09375 -24.09375 C 21.5 -20 23.421875 -16.65625 26.859375 -14.0625 C 30.304688 -11.46875 34.820312 -10.171875 40.40625 -10.171875 C 45.59375 -10.171875 49.679688 -11.316406 52.671875 -13.609375 C 55.671875 -15.910156 57.171875 -18.804688 57.171875 -22.296875 C 57.171875 -25.890625 55.570312 -28.554688 52.375 -30.296875 C 49.1875 -32.046875 44.25 -33.769531 37.5625 -35.46875 C 31.476562 -37.0625 26.515625 -38.679688 22.671875 -40.328125 C 18.828125 -41.972656 15.535156 -44.414062 12.796875 -47.65625 C 10.054688 -50.90625 8.6875 -55.175781 8.6875 -60.46875 C 8.6875 -64.65625 9.929688 -68.492188 12.421875 -71.984375 C 14.910156 -75.472656 18.453125 -78.238281 23.046875 -80.28125 C 27.640625 -82.332031 32.878906 -83.359375 38.765625 -83.359375 C 47.835938 -83.359375 55.164062 -81.0625 60.75 -76.46875 C 66.34375 -71.882812 69.335938 -65.601562 69.734375 -57.625 L 56.125 -57.625 C 55.820312 -61.90625 54.097656 -65.34375 50.953125 -67.9375 C 47.816406 -70.53125 43.601562 -71.828125 38.3125 -71.828125 C 33.425781 -71.828125 29.535156 -70.78125 26.640625 -68.6875 C 23.742188 -66.59375 22.296875 -63.851562 22.296875 -60.46875 C 22.296875 -57.769531 23.164062 -55.546875 24.90625 -53.796875 C 26.65625 -52.054688 28.851562 -50.660156 31.5 -49.609375 C 34.144531 -48.566406 37.8125 -47.394531 42.5 -46.09375 C 48.382812 -44.5 53.171875 -42.925781 56.859375 -41.375 C 60.554688 -39.832031 63.726562 -37.515625 66.375 -34.421875 C 69.019531 -31.328125 70.390625 -27.285156 70.484375 -22.296875 C 70.484375 -17.804688 69.234375 -13.765625 66.734375 -10.171875 C 64.242188 -6.578125 60.726562 -3.757812 56.1875 -1.71875 C 51.65625 0.320312 46.445312 1.34375 40.5625 1.34375 Z M 40.5625 1.34375 "/></g></g></g><g fill="#ffffff" fill-opacity="1"><g transform="translate(1191.650015, 448.247927)"><g><path d="M 28.140625 -70.78125 L 28.140625 -22.453125 C 28.140625 -18.460938 28.984375 -15.644531 30.671875 -14 C 32.367188 -12.351562 35.316406 -11.53125 39.515625 -11.53125 L 49.53125 -11.53125 L 49.53125 0 L 37.265625 0 C 29.679688 0 23.992188 -1.742188 20.203125 -5.234375 C 16.410156 -8.722656 14.515625 -14.460938 14.515625 -22.453125 L 14.515625 -70.78125 L 3.890625 -70.78125 L 3.890625 -82.015625 L 14.515625 -82.015625 L 14.515625 -102.671875 L 28.140625 -102.671875 L 28.140625 -82.015625 L 49.53125 -82.015625 L 49.53125 -70.78125 Z M 28.140625 -70.78125 "/></g></g></g><g fill="#ffffff" fill-opacity="1"><g transform="translate(1246.12166, 448.247927)"><g><path d="M 86.359375 -44.15625 C 86.359375 -41.550781 86.207031 -38.804688 85.90625 -35.921875 L 20.359375 -35.921875 C 20.847656 -27.835938 23.613281 -21.523438 28.65625 -16.984375 C 33.695312 -12.441406 39.804688 -10.171875 46.984375 -10.171875 C 52.878906 -10.171875 57.796875 -11.539062 61.734375 -14.28125 C 65.671875 -17.03125 68.441406 -20.703125 70.046875 -25.296875 L 84.703125 -25.296875 C 82.503906 -17.410156 78.113281 -11 71.53125 -6.0625 C 64.945312 -1.125 56.765625 1.34375 46.984375 1.34375 C 39.203125 1.34375 32.242188 -0.398438 26.109375 -3.890625 C 19.972656 -7.378906 15.160156 -12.34375 11.671875 -18.78125 C 8.179688 -25.21875 6.4375 -32.675781 6.4375 -41.15625 C 6.4375 -49.632812 8.128906 -57.066406 11.515625 -63.453125 C 14.910156 -69.835938 19.675781 -74.75 25.8125 -78.1875 C 31.945312 -81.632812 39.003906 -83.359375 46.984375 -83.359375 C 54.773438 -83.359375 61.660156 -81.660156 67.640625 -78.265625 C 73.628906 -74.878906 78.242188 -70.21875 81.484375 -64.28125 C 84.734375 -58.34375 86.359375 -51.632812 86.359375 -44.15625 Z M 72.28125 -46.984375 C 72.28125 -52.179688 71.132812 -56.648438 68.84375 -60.390625 C 66.550781 -64.128906 63.429688 -66.96875 59.484375 -68.90625 C 55.546875 -70.851562 51.179688 -71.828125 46.390625 -71.828125 C 39.503906 -71.828125 33.640625 -69.632812 28.796875 -65.25 C 23.960938 -60.863281 21.195312 -54.773438 20.5 -46.984375 Z M 72.28125 -46.984375 "/></g></g></g><g fill="#ffffff" fill-opacity="1"><g transform="translate(1338.903011, 448.247927)"><g><path d="M 25.140625 -68.6875 C 27.535156 -73.375 30.953125 -77.015625 35.390625 -79.609375 C 39.828125 -82.210938 45.238281 -83.515625 51.625 -83.515625 L 51.625 -69.4375 L 48.046875 -69.4375 C 32.773438 -69.4375 25.140625 -61.15625 25.140625 -44.59375 L 25.140625 0 L 11.53125 0 L 11.53125 -82.015625 L 25.140625 -82.015625 Z M 25.140625 -68.6875 "/></g></g></g><g fill="#ffffff" fill-opacity="1"><g transform="translate(836.174076, 580.446279)"><g><path d="M 29.40625 -69.703125 C 37 -69.703125 43.578125 -68.285156 49.140625 -65.453125 C 54.710938 -62.617188 58.984375 -58.566406 61.953125 -53.296875 C 64.921875 -48.035156 66.40625 -41.835938 66.40625 -34.703125 C 66.40625 -27.566406 64.921875 -21.378906 61.953125 -16.140625 C 58.984375 -10.910156 54.710938 -6.910156 49.140625 -4.140625 C 43.578125 -1.378906 37 0 29.40625 0 L 7.703125 0 L 7.703125 -69.703125 Z M 29.40625 -7.5 C 38.40625 -7.5 45.269531 -9.878906 50 -14.640625 C 54.726562 -19.410156 57.09375 -26.097656 57.09375 -34.703125 C 57.09375 -43.367188 54.707031 -50.132812 49.9375 -55 C 45.175781 -59.863281 38.332031 -62.296875 29.40625 -62.296875 L 16.796875 -62.296875 L 16.796875 -7.5 Z M 29.40625 -7.5 "/></g></g></g><g fill="#ffffff" fill-opacity="1"><g transform="translate(906.871346, 580.446279)"><g><path d="M 4.296875 -27.59375 C 4.296875 -33.195312 5.425781 -38.113281 7.6875 -42.34375 C 9.957031 -46.582031 13.078125 -49.867188 17.046875 -52.203125 C 21.015625 -54.535156 25.429688 -55.703125 30.296875 -55.703125 C 35.097656 -55.703125 39.265625 -54.664062 42.796875 -52.59375 C 46.328125 -50.53125 48.960938 -47.929688 50.703125 -44.796875 L 50.703125 -54.796875 L 59.90625 -54.796875 L 59.90625 0 L 50.703125 0 L 50.703125 -10.203125 C 48.898438 -7.003906 46.210938 -4.351562 42.640625 -2.25 C 39.078125 -0.144531 34.929688 0.90625 30.203125 0.90625 C 25.335938 0.90625 20.9375 -0.289062 17 -2.6875 C 13.0625 -5.09375 9.957031 -8.460938 7.6875 -12.796875 C 5.425781 -17.128906 4.296875 -22.0625 4.296875 -27.59375 Z M 50.703125 -27.5 C 50.703125 -31.632812 49.867188 -35.234375 48.203125 -38.296875 C 46.535156 -41.367188 44.285156 -43.71875 41.453125 -45.34375 C 38.617188 -46.976562 35.5 -47.796875 32.09375 -47.796875 C 28.695312 -47.796875 25.597656 -46.992188 22.796875 -45.390625 C 19.992188 -43.796875 17.757812 -41.460938 16.09375 -38.390625 C 14.425781 -35.328125 13.59375 -31.726562 13.59375 -27.59375 C 13.59375 -23.394531 14.425781 -19.742188 16.09375 -16.640625 C 17.757812 -13.546875 19.992188 -11.179688 22.796875 -9.546875 C 25.597656 -7.910156 28.695312 -7.09375 32.09375 -7.09375 C 35.5 -7.09375 38.617188 -7.910156 41.453125 -9.546875 C 44.285156 -11.179688 46.535156 -13.546875 48.203125 -16.640625 C 49.867188 -19.742188 50.703125 -23.363281 50.703125 -27.5 Z M 50.703125 -27.5 "/></g></g></g><g fill="#ffffff" fill-opacity="1"><g transform="translate(974.468743, 580.446279)"><g><path d="M 27.09375 0.90625 C 22.894531 0.90625 19.128906 0.1875 15.796875 -1.25 C 12.460938 -2.6875 9.828125 -4.6875 7.890625 -7.25 C 5.960938 -9.8125 4.898438 -12.757812 4.703125 -16.09375 L 14.09375 -16.09375 C 14.363281 -13.363281 15.648438 -11.128906 17.953125 -9.390625 C 20.253906 -7.660156 23.269531 -6.796875 27 -6.796875 C 30.46875 -6.796875 33.203125 -7.5625 35.203125 -9.09375 C 37.203125 -10.632812 38.203125 -12.570312 38.203125 -14.90625 C 38.203125 -17.300781 37.132812 -19.082031 35 -20.25 C 32.863281 -21.414062 29.5625 -22.566406 25.09375 -23.703125 C 21.03125 -24.765625 17.710938 -25.84375 15.140625 -26.9375 C 12.578125 -28.039062 10.378906 -29.675781 8.546875 -31.84375 C 6.710938 -34.007812 5.796875 -36.863281 5.796875 -40.40625 C 5.796875 -43.195312 6.628906 -45.757812 8.296875 -48.09375 C 9.960938 -50.425781 12.328125 -52.273438 15.390625 -53.640625 C 18.460938 -55.015625 21.96875 -55.703125 25.90625 -55.703125 C 31.96875 -55.703125 36.863281 -54.164062 40.59375 -51.09375 C 44.332031 -48.03125 46.332031 -43.832031 46.59375 -38.5 L 37.5 -38.5 C 37.300781 -41.363281 36.148438 -43.660156 34.046875 -45.390625 C 31.953125 -47.128906 29.132812 -48 25.59375 -48 C 22.332031 -48 19.734375 -47.296875 17.796875 -45.890625 C 15.867188 -44.492188 14.90625 -42.664062 14.90625 -40.40625 C 14.90625 -38.601562 15.488281 -37.117188 16.65625 -35.953125 C 17.820312 -34.785156 19.285156 -33.847656 21.046875 -33.140625 C 22.816406 -32.441406 25.269531 -31.660156 28.40625 -30.796875 C 32.332031 -29.734375 35.53125 -28.679688 38 -27.640625 C 40.46875 -26.609375 42.582031 -25.0625 44.34375 -23 C 46.113281 -20.9375 47.03125 -18.238281 47.09375 -14.90625 C 47.09375 -11.90625 46.257812 -9.203125 44.59375 -6.796875 C 42.925781 -4.398438 40.578125 -2.515625 37.546875 -1.140625 C 34.515625 0.222656 31.03125 0.90625 27.09375 0.90625 Z M 27.09375 0.90625 "/></g></g></g><g fill="#ffffff" fill-opacity="1"><g transform="translate(1026.666732, 580.446279)"><g><path d="M 34.90625 -55.796875 C 39.03125 -55.796875 42.757812 -54.910156 46.09375 -53.140625 C 49.425781 -51.378906 52.039062 -48.734375 53.9375 -45.203125 C 55.84375 -41.671875 56.796875 -37.367188 56.796875 -32.296875 L 56.796875 0 L 47.796875 0 L 47.796875 -31 C 47.796875 -36.46875 46.425781 -40.648438 43.6875 -43.546875 C 40.957031 -46.453125 37.226562 -47.90625 32.5 -47.90625 C 27.695312 -47.90625 23.878906 -46.40625 21.046875 -43.40625 C 18.210938 -40.40625 16.796875 -36.035156 16.796875 -30.296875 L 16.796875 0 L 7.703125 0 L 7.703125 -74 L 16.796875 -74 L 16.796875 -47 C 18.597656 -49.800781 21.082031 -51.96875 24.25 -53.5 C 27.414062 -55.03125 30.96875 -55.796875 34.90625 -55.796875 Z M 34.90625 -55.796875 "/></g></g></g><g fill="#ffffff" fill-opacity="1"><g transform="translate(1090.664252, 580.446279)"><g><path d="M 16.796875 -44.59375 C 18.660156 -47.863281 21.394531 -50.53125 25 -52.59375 C 28.601562 -54.664062 32.703125 -55.703125 37.296875 -55.703125 C 42.234375 -55.703125 46.664062 -54.535156 50.59375 -52.203125 C 54.53125 -49.867188 57.628906 -46.582031 59.890625 -42.34375 C 62.160156 -38.113281 63.296875 -33.195312 63.296875 -27.59375 C 63.296875 -22.0625 62.160156 -17.128906 59.890625 -12.796875 C 57.628906 -8.460938 54.515625 -5.09375 50.546875 -2.6875 C 46.578125 -0.289062 42.160156 0.90625 37.296875 0.90625 C 32.566406 0.90625 28.414062 -0.125 24.84375 -2.1875 C 21.28125 -4.257812 18.597656 -6.894531 16.796875 -10.09375 L 16.796875 0 L 7.703125 0 L 7.703125 -74 L 16.796875 -74 Z M 54 -27.59375 C 54 -31.726562 53.164062 -35.328125 51.5 -38.390625 C 49.832031 -41.460938 47.582031 -43.796875 44.75 -45.390625 C 41.914062 -46.992188 38.800781 -47.796875 35.40625 -47.796875 C 32.070312 -47.796875 28.988281 -46.976562 26.15625 -45.34375 C 23.320312 -43.71875 21.050781 -41.351562 19.34375 -38.25 C 17.644531 -35.144531 16.796875 -31.5625 16.796875 -27.5 C 16.796875 -23.363281 17.644531 -19.742188 19.34375 -16.640625 C 21.050781 -13.546875 23.320312 -11.179688 26.15625 -9.546875 C 28.988281 -7.910156 32.070312 -7.09375 35.40625 -7.09375 C 38.800781 -7.09375 41.914062 -7.910156 44.75 -9.546875 C 47.582031 -11.179688 49.832031 -13.546875 51.5 -16.640625 C 53.164062 -19.742188 54 -23.394531 54 -27.59375 Z M 54 -27.59375 "/></g></g></g><g fill="#ffffff" fill-opacity="1"><g transform="translate(1158.261661, 580.446279)"><g><path d="M 31.59375 0.90625 C 26.46875 0.90625 21.820312 -0.257812 17.65625 -2.59375 C 13.488281 -4.925781 10.21875 -8.242188 7.84375 -12.546875 C 5.476562 -16.847656 4.296875 -21.832031 4.296875 -27.5 C 4.296875 -33.101562 5.507812 -38.050781 7.9375 -42.34375 C 10.375 -46.644531 13.691406 -49.945312 17.890625 -52.25 C 22.097656 -54.550781 26.800781 -55.703125 32 -55.703125 C 37.195312 -55.703125 41.894531 -54.550781 46.09375 -52.25 C 50.300781 -49.945312 53.617188 -46.660156 56.046875 -42.390625 C 58.484375 -38.128906 59.703125 -33.164062 59.703125 -27.5 C 59.703125 -21.832031 58.453125 -16.847656 55.953125 -12.546875 C 53.453125 -8.242188 50.066406 -4.925781 45.796875 -2.59375 C 41.535156 -0.257812 36.800781 0.90625 31.59375 0.90625 Z M 31.59375 -7.09375 C 34.863281 -7.09375 37.929688 -7.859375 40.796875 -9.390625 C 43.660156 -10.929688 45.976562 -13.234375 47.75 -16.296875 C 49.519531 -19.367188 50.40625 -23.101562 50.40625 -27.5 C 50.40625 -31.894531 49.535156 -35.625 47.796875 -38.6875 C 46.066406 -41.757812 43.800781 -44.046875 41 -45.546875 C 38.195312 -47.046875 35.164062 -47.796875 31.90625 -47.796875 C 28.570312 -47.796875 25.519531 -47.046875 22.75 -45.546875 C 19.976562 -44.046875 17.757812 -41.757812 16.09375 -38.6875 C 14.425781 -35.625 13.59375 -31.894531 13.59375 -27.5 C 13.59375 -23.03125 14.410156 -19.257812 16.046875 -16.1875 C 17.679688 -13.125 19.863281 -10.84375 22.59375 -9.34375 C 25.332031 -7.84375 28.332031 -7.09375 31.59375 -7.09375 Z M 31.59375 -7.09375 "/></g></g></g><g fill="#ffffff" fill-opacity="1"><g transform="translate(1222.259171, 580.446279)"><g><path d="M 4.296875 -27.59375 C 4.296875 -33.195312 5.425781 -38.113281 7.6875 -42.34375 C 9.957031 -46.582031 13.078125 -49.867188 17.046875 -52.203125 C 21.015625 -54.535156 25.429688 -55.703125 30.296875 -55.703125 C 35.097656 -55.703125 39.265625 -54.664062 42.796875 -52.59375 C 46.328125 -50.53125 48.960938 -47.929688 50.703125 -44.796875 L 50.703125 -54.796875 L 59.90625 -54.796875 L 59.90625 0 L 50.703125 0 L 50.703125 -10.203125 C 48.898438 -7.003906 46.210938 -4.351562 42.640625 -2.25 C 39.078125 -0.144531 34.929688 0.90625 30.203125 0.90625 C 25.335938 0.90625 20.9375 -0.289062 17 -2.6875 C 13.0625 -5.09375 9.957031 -8.460938 7.6875 -12.796875 C 5.425781 -17.128906 4.296875 -22.0625 4.296875 -27.59375 Z M 50.703125 -27.5 C 50.703125 -31.632812 49.867188 -35.234375 48.203125 -38.296875 C 46.535156 -41.367188 44.285156 -43.71875 41.453125 -45.34375 C 38.617188 -46.976562 35.5 -47.796875 32.09375 -47.796875 C 28.695312 -47.796875 25.597656 -46.992188 22.796875 -45.390625 C 19.992188 -43.796875 17.757812 -41.460938 16.09375 -38.390625 C 14.425781 -35.328125 13.59375 -31.726562 13.59375 -27.59375 C 13.59375 -23.394531 14.425781 -19.742188 16.09375 -16.640625 C 17.757812 -13.546875 19.992188 -11.179688 22.796875 -9.546875 C 25.597656 -7.910156 28.695312 -7.09375 32.09375 -7.09375 C 35.5 -7.09375 38.617188 -7.910156 41.453125 -9.546875 C 44.285156 -11.179688 46.535156 -13.546875 48.203125 -16.640625 C 49.867188 -19.742188 50.703125 -23.363281 50.703125 -27.5 Z M 50.703125 -27.5 "/></g></g></g><g fill="#ffffff" fill-opacity="1"><g transform="translate(1289.85658, 580.446279)"><g><path d="M 16.796875 -45.90625 C 18.398438 -49.03125 20.679688 -51.457031 23.640625 -53.1875 C 26.609375 -54.925781 30.226562 -55.796875 34.5 -55.796875 L 34.5 -46.40625 L 32.09375 -46.40625 C 21.894531 -46.40625 16.796875 -40.867188 16.796875 -29.796875 L 16.796875 0 L 7.703125 0 L 7.703125 -54.796875 L 16.796875 -54.796875 Z M 16.796875 -45.90625 "/></g></g></g><g fill="#ffffff" fill-opacity="1"><g transform="translate(1327.155161, 580.446279)"><g><path d="M 4.296875 -27.59375 C 4.296875 -33.195312 5.425781 -38.113281 7.6875 -42.34375 C 9.957031 -46.582031 13.078125 -49.867188 17.046875 -52.203125 C 21.015625 -54.535156 25.46875 -55.703125 30.40625 -55.703125 C 34.664062 -55.703125 38.628906 -54.71875 42.296875 -52.75 C 45.960938 -50.78125 48.765625 -48.195312 50.703125 -45 L 50.703125 -74 L 59.90625 -74 L 59.90625 0 L 50.703125 0 L 50.703125 -10.296875 C 48.898438 -7.035156 46.234375 -4.351562 42.703125 -2.25 C 39.171875 -0.144531 35.035156 0.90625 30.296875 0.90625 C 25.429688 0.90625 21.015625 -0.289062 17.046875 -2.6875 C 13.078125 -5.09375 9.957031 -8.460938 7.6875 -12.796875 C 5.425781 -17.128906 4.296875 -22.0625 4.296875 -27.59375 Z M 50.703125 -27.5 C 50.703125 -31.632812 49.867188 -35.234375 48.203125 -38.296875 C 46.535156 -41.367188 44.285156 -43.71875 41.453125 -45.34375 C 38.617188 -46.976562 35.5 -47.796875 32.09375 -47.796875 C 28.695312 -47.796875 25.597656 -46.992188 22.796875 -45.390625 C 19.992188 -43.796875 17.757812 -41.460938 16.09375 -38.390625 C 14.425781 -35.328125 13.59375 -31.726562 13.59375 -27.59375 C 13.59375 -23.394531 14.425781 -19.742188 16.09375 -16.640625 C 17.757812 -13.546875 19.992188 -11.179688 22.796875 -9.546875 C 25.597656 -7.910156 28.695312 -7.09375 32.09375 -7.09375 C 35.5 -7.09375 38.617188 -7.910156 41.453125 -9.546875 C 44.285156 -11.179688 46.535156 -13.546875 48.203125 -16.640625 C 49.867188 -19.742188 50.703125 -23.363281 50.703125 -27.5 Z M 50.703125 -27.5 "/></g></g></g></svg>