<svg xmlns="http://www.w3.org/2000/svg" xmlns:xlink="http://www.w3.org/1999/xlink" width="1920" zoomAndPan="magnify" viewBox="0 0 1440 809.999993" height="1080" preserveAspectRatio="xMidYMid meet" version="1.0"><defs><g/></defs><path stroke-linecap="round" transform="matrix(0.75, -0.000000000000000558, 0.000000000000000558, 0.75, 45.225918, 311.329605)" fill="none" stroke-linejoin="miter" d="M 21.50086 21.498028 L 125.334199 21.498028 " stroke="#cb6ce6" stroke-width="43" stroke-opacity="1" stroke-miterlimit="4"/><path stroke-linecap="round" transform="matrix(0.75, -0.00000000000000093, 0.00000000000000093, 0.75, 167.408729, 311.329605)" fill="none" stroke-linejoin="miter" d="M 21.501904 21.498028 L 66.199823 21.498028 " stroke="#ff66c4" stroke-width="43" stroke-opacity="1" stroke-miterlimit="4"/><path stroke-linecap="round" transform="matrix(0.75, 0.000000000000000361, -0.000000000000000361, 0.75, 245.275863, 311.329605)" fill="none" stroke-linejoin="miter" d="M 21.501975 21.498028 L 214.824901 21.498028 " stroke="#5271ff" stroke-width="43" stroke-opacity="1" stroke-miterlimit="4"/><path stroke-linecap="round" transform="matrix(0.75, -0.000000000000000186, 0.000000000000000186, 0.75, 45.225918, 364.243506)" fill="none" stroke-linejoin="miter" d="M 21.50086 21.498242 L 481.558175 21.498242 " stroke="#8c52ff" stroke-width="43" stroke-opacity="1" stroke-miterlimit="4"/><path stroke-linecap="round" transform="matrix(0.75, 0.000000000000000407, -0.000000000000000407, 0.75, 45.225918, 417.157415)" fill="none" stroke-linejoin="miter" d="M 21.50086 21.498448 L 397.079004 21.498448 " stroke="#5e17eb" stroke-width="43" stroke-opacity="1" stroke-miterlimit="4"/><path stroke-linecap="round" transform="matrix(0.75, 0, 0, 0.75, 368.872576, 417.157415)" fill="none" stroke-linejoin="miter" d="M 21.498024 21.498448 L 50.029276 21.498448 " stroke="#cb6ce6" stroke-width="43" stroke-opacity="1" stroke-miterlimit="4"/><path stroke-linecap="round" transform="matrix(0.75, 0, 0, 0.75, 191.970625, 470.071292)" fill="none" stroke-linejoin="miter" d="M 21.497501 21.498695 L 284.981889 21.498695 " stroke="#5271ff" stroke-width="43" stroke-opacity="1" stroke-miterlimit="4"/><path stroke-linecap="round" transform="matrix(0.75, 0, 0, 0.75, 45.225918, 470.071292)" fill="none" stroke-linejoin="miter" d="M 21.50086 21.498695 L 158.886284 21.498695 " stroke="#5e17eb" stroke-width="43" stroke-opacity="1" stroke-miterlimit="4"/><g fill="#ffffff" fill-opacity="1"><g transform="translate(459.425765, 448.247927)"><g><path d="M 75.71875 -104.3125 L 75.71875 -93.234375 L 47.296875 -93.234375 L 47.296875 0 L 33.671875 0 L 33.671875 -93.234375 L 5.09375 -93.234375 L 5.09375 -104.3125 Z M 75.71875 -104.3125 "/></g></g></g><g fill="#ffffff" fill-opacity="1"><g transform="translate(540.384941, 448.247927)"><g><path d="M 84.25 -82.015625 L 84.25 0 L 70.640625 0 L 70.640625 -12.125 C 68.046875 -7.9375 64.425781 -4.664062 59.78125 -2.3125 C 55.144531 0.03125 50.035156 1.203125 44.453125 1.203125 C 38.066406 1.203125 32.328125 -0.117188 27.234375 -2.765625 C 22.148438 -5.410156 18.132812 -9.375 15.1875 -14.65625 C 12.25 -19.945312 10.78125 -26.382812 10.78125 -33.96875 L 10.78125 -82.015625 L 24.25 -82.015625 L 24.25 -35.765625 C 24.25 -27.679688 26.289062 -21.46875 30.375 -17.125 C 34.46875 -12.789062 40.054688 -10.625 47.140625 -10.625 C 54.421875 -10.625 60.15625 -12.867188 64.34375 -17.359375 C 68.539062 -21.847656 70.640625 -28.382812 70.640625 -36.96875 L 70.640625 -82.015625 Z M 84.25 -82.015625 "/></g></g></g><g fill="#ffffff" fill-opacity="1"><g transform="translate(636.159209, 448.247927)"><g><path d="M 25.140625 -68.6875 C 27.535156 -73.375 30.953125 -77.015625 35.390625 -79.609375 C 39.828125 -82.210938 45.238281 -83.515625 51.625 -83.515625 L 51.625 -69.4375 L 48.046875 -69.4375 C 32.773438 -69.4375 25.140625 -61.15625 25.140625 -44.59375 L 25.140625 0 L 11.53125 0 L 11.53125 -82.015625 L 25.140625 -82.015625 Z M 25.140625 -68.6875 "/></g></g></g><g fill="#ffffff" fill-opacity="1"><g transform="translate(691.977649, 448.247927)"><g><path d="M 51.484375 -83.515625 C 61.460938 -83.515625 69.539062 -80.492188 75.71875 -74.453125 C 81.90625 -68.421875 85 -59.71875 85 -48.34375 L 85 0 L 71.53125 0 L 71.53125 -46.390625 C 71.53125 -54.578125 69.484375 -60.835938 65.390625 -65.171875 C 61.304688 -69.515625 55.722656 -71.6875 48.640625 -71.6875 C 41.453125 -71.6875 35.738281 -69.441406 31.5 -64.953125 C 27.257812 -60.460938 25.140625 -53.925781 25.140625 -45.34375 L 25.140625 0 L 11.53125 0 L 11.53125 -82.015625 L 25.140625 -82.015625 L 25.140625 -70.34375 C 27.835938 -74.53125 31.503906 -77.769531 36.140625 -80.0625 C 40.773438 -82.363281 45.890625 -83.515625 51.484375 -83.515625 Z M 51.484375 -83.515625 "/></g></g></g><g fill="#ffffff" fill-opacity="1"><g transform="translate(787.751918, 448.247927)"><g><path d="M 47.296875 1.34375 C 39.609375 1.34375 32.644531 -0.398438 26.40625 -3.890625 C 20.175781 -7.378906 15.289062 -12.34375 11.75 -18.78125 C 8.207031 -25.21875 6.4375 -32.675781 6.4375 -41.15625 C 6.4375 -49.539062 8.253906 -56.945312 11.890625 -63.375 C 15.535156 -69.8125 20.5 -74.75 26.78125 -78.1875 C 33.070312 -81.632812 40.109375 -83.359375 47.890625 -83.359375 C 55.671875 -83.359375 62.703125 -81.632812 68.984375 -78.1875 C 75.273438 -74.75 80.238281 -69.835938 83.875 -63.453125 C 87.519531 -57.066406 89.34375 -49.632812 89.34375 -41.15625 C 89.34375 -32.675781 87.472656 -25.21875 83.734375 -18.78125 C 79.992188 -12.34375 74.929688 -7.378906 68.546875 -3.890625 C 62.160156 -0.398438 55.078125 1.34375 47.296875 1.34375 Z M 47.296875 -10.625 C 52.179688 -10.625 56.769531 -11.769531 61.0625 -14.0625 C 65.351562 -16.363281 68.816406 -19.804688 71.453125 -24.390625 C 74.097656 -28.984375 75.421875 -34.570312 75.421875 -41.15625 C 75.421875 -47.738281 74.125 -53.320312 71.53125 -57.90625 C 68.9375 -62.5 65.546875 -65.914062 61.359375 -68.15625 C 57.171875 -70.40625 52.628906 -71.53125 47.734375 -71.53125 C 42.742188 -71.53125 38.179688 -70.40625 34.046875 -68.15625 C 29.910156 -65.914062 26.59375 -62.5 24.09375 -57.90625 C 21.601562 -53.320312 20.359375 -47.738281 20.359375 -41.15625 C 20.359375 -34.46875 21.578125 -28.828125 24.015625 -24.234375 C 26.460938 -19.648438 29.726562 -16.234375 33.8125 -13.984375 C 37.90625 -11.742188 42.398438 -10.625 47.296875 -10.625 Z M 47.296875 -10.625 "/></g></g></g><g fill="#ffffff" fill-opacity="1"><g transform="translate(883.526186, 448.247927)"><g><path d="M 117.328125 -103.5625 L 117.328125 0 L 103.71875 0 L 103.71875 -77.21875 L 69.296875 0 L 59.71875 0 L 25.140625 -77.375 L 25.140625 0 L 11.53125 0 L 11.53125 -103.5625 L 26.1875 -103.5625 L 64.5 -17.953125 L 102.8125 -103.5625 Z M 117.328125 -103.5625 "/></g></g></g><g fill="#ffffff" fill-opacity="1"><g transform="translate(1012.372521, 448.247927)"><g><path d="M 6.4375 -41.3125 C 6.4375 -49.6875 8.128906 -57.039062 11.515625 -63.375 C 14.910156 -69.707031 19.578125 -74.617188 25.515625 -78.109375 C 31.453125 -81.609375 38.0625 -83.359375 45.34375 -83.359375 C 52.53125 -83.359375 58.765625 -81.8125 64.046875 -78.71875 C 69.335938 -75.625 73.28125 -71.734375 75.875 -67.046875 L 75.875 -82.015625 L 89.640625 -82.015625 L 89.640625 0 L 75.875 0 L 75.875 -15.265625 C 73.175781 -10.472656 69.160156 -6.503906 63.828125 -3.359375 C 58.492188 -0.222656 52.285156 1.34375 45.203125 1.34375 C 37.910156 1.34375 31.320312 -0.445312 25.4375 -4.03125 C 19.550781 -7.625 14.910156 -12.664062 11.515625 -19.15625 C 8.128906 -25.644531 6.4375 -33.03125 6.4375 -41.3125 Z M 75.875 -41.15625 C 75.875 -47.34375 74.625 -52.726562 72.125 -57.3125 C 69.632812 -61.90625 66.269531 -65.421875 62.03125 -67.859375 C 57.789062 -70.304688 53.128906 -71.53125 48.046875 -71.53125 C 42.953125 -71.53125 38.3125 -70.332031 34.125 -67.9375 C 29.9375 -65.550781 26.59375 -62.0625 24.09375 -57.46875 C 21.601562 -52.875 20.359375 -47.488281 20.359375 -41.3125 C 20.359375 -35.019531 21.601562 -29.550781 24.09375 -24.90625 C 26.59375 -20.269531 29.9375 -16.726562 34.125 -14.28125 C 38.3125 -11.84375 42.953125 -10.625 48.046875 -10.625 C 53.128906 -10.625 57.789062 -11.84375 62.03125 -14.28125 C 66.269531 -16.726562 69.632812 -20.269531 72.125 -24.90625 C 74.625 -29.550781 75.875 -34.96875 75.875 -41.15625 Z M 75.875 -41.15625 "/></g></g></g><g fill="#ffffff" fill-opacity="1"><g transform="translate(1113.534118, 448.247927)"><g><path d="M 40.5625 1.34375 C 34.269531 1.34375 28.628906 0.269531 23.640625 -1.875 C 18.648438 -4.019531 14.707031 -7.007812 11.8125 -10.84375 C 8.925781 -14.6875 7.332031 -19.101562 7.03125 -24.09375 L 21.09375 -24.09375 C 21.5 -20 23.421875 -16.65625 26.859375 -14.0625 C 30.304688 -11.46875 34.820312 -10.171875 40.40625 -10.171875 C 45.59375 -10.171875 49.679688 -11.316406 52.671875 -13.609375 C 55.671875 -15.910156 57.171875 -18.804688 57.171875 -22.296875 C 57.171875 -25.890625 55.570312 -28.554688 52.375 -30.296875 C 49.1875 -32.046875 44.25 -33.769531 37.5625 -35.46875 C 31.476562 -37.0625 26.515625 -38.679688 22.671875 -40.328125 C 18.828125 -41.972656 15.535156 -44.414062 12.796875 -47.65625 C 10.054688 -50.90625 8.6875 -55.175781 8.6875 -60.46875 C 8.6875 -64.65625 9.929688 -68.492188 12.421875 -71.984375 C 14.910156 -75.472656 18.453125 -78.238281 23.046875 -80.28125 C 27.640625 -82.332031 32.878906 -83.359375 38.765625 -83.359375 C 47.835938 -83.359375 55.164062 -81.0625 60.75 -76.46875 C 66.34375 -71.882812 69.335938 -65.601562 69.734375 -57.625 L 56.125 -57.625 C 55.820312 -61.90625 54.097656 -65.34375 50.953125 -67.9375 C 47.816406 -70.53125 43.601562 -71.828125 38.3125 -71.828125 C 33.425781 -71.828125 29.535156 -70.78125 26.640625 -68.6875 C 23.742188 -66.59375 22.296875 -63.851562 22.296875 -60.46875 C 22.296875 -57.769531 23.164062 -55.546875 24.90625 -53.796875 C 26.65625 -52.054688 28.851562 -50.660156 31.5 -49.609375 C 34.144531 -48.566406 37.8125 -47.394531 42.5 -46.09375 C 48.382812 -44.5 53.171875 -42.925781 56.859375 -41.375 C 60.554688 -39.832031 63.726562 -37.515625 66.375 -34.421875 C 69.019531 -31.328125 70.390625 -27.285156 70.484375 -22.296875 C 70.484375 -17.804688 69.234375 -13.765625 66.734375 -10.171875 C 64.242188 -6.578125 60.726562 -3.757812 56.1875 -1.71875 C 51.65625 0.320312 46.445312 1.34375 40.5625 1.34375 Z M 40.5625 1.34375 "/></g></g></g><g fill="#ffffff" fill-opacity="1"><g transform="translate(1191.650015, 448.247927)"><g><path d="M 28.140625 -70.78125 L 28.140625 -22.453125 C 28.140625 -18.460938 28.984375 -15.644531 30.671875 -14 C 32.367188 -12.351562 35.316406 -11.53125 39.515625 -11.53125 L 49.53125 -11.53125 L 49.53125 0 L 37.265625 0 C 29.679688 0 23.992188 -1.742188 20.203125 -5.234375 C 16.410156 -8.722656 14.515625 -14.460938 14.515625 -22.453125 L 14.515625 -70.78125 L 3.890625 -70.78125 L 3.890625 -82.015625 L 14.515625 -82.015625 L 14.515625 -102.671875 L 28.140625 -102.671875 L 28.140625 -82.015625 L 49.53125 -82.015625 L 49.53125 -70.78125 Z M 28.140625 -70.78125 "/></g></g></g><g fill="#ffffff" fill-opacity="1"><g transform="translate(1246.12166, 448.247927)"><g><path d="M 86.359375 -44.15625 C 86.359375 -41.550781 86.207031 -38.804688 85.90625 -35.921875 L 20.359375 -35.921875 C 20.847656 -27.835938 23.613281 -21.523438 28.65625 -16.984375 C 33.695312 -12.441406 39.804688 -10.171875 46.984375 -10.171875 C 52.878906 -10.171875 57.796875 -11.539062 61.734375 -14.28125 C 65.671875 -17.03125 68.441406 -20.703125 70.046875 -25.296875 L 84.703125 -25.296875 C 82.503906 -17.410156 78.113281 -11 71.53125 -6.0625 C 64.945312 -1.125 56.765625 1.34375 46.984375 1.34375 C 39.203125 1.34375 32.242188 -0.398438 26.109375 -3.890625 C 19.972656 -7.378906 15.160156 -12.34375 11.671875 -18.78125 C 8.179688 -25.21875 6.4375 -32.675781 6.4375 -41.15625 C 6.4375 -49.632812 8.128906 -57.066406 11.515625 -63.453125 C 14.910156 -69.835938 19.675781 -74.75 25.8125 -78.1875 C 31.945312 -81.632812 39.003906 -83.359375 46.984375 -83.359375 C 54.773438 -83.359375 61.660156 -81.660156 67.640625 -78.265625 C 73.628906 -74.878906 78.242188 -70.21875 81.484375 -64.28125 C 84.734375 -58.34375 86.359375 -51.632812 86.359375 -44.15625 Z M 72.28125 -46.984375 C 72.28125 -52.179688 71.132812 -56.648438 68.84375 -60.390625 C 66.550781 -64.128906 63.429688 -66.96875 59.484375 -68.90625 C 55.546875 -70.851562 51.179688 -71.828125 46.390625 -71.828125 C 39.503906 -71.828125 33.640625 -69.632812 28.796875 -65.25 C 23.960938 -60.863281 21.195312 -54.773438 20.5 -46.984375 Z M 72.28125 -46.984375 "/></g></g></g><g fill="#ffffff" fill-opacity="1"><g transform="translate(1338.903011, 448.247927)"><g><path d="M 25.140625 -68.6875 C 27.535156 -73.375 30.953125 -77.015625 35.390625 -79.609375 C 39.828125 -82.210938 45.238281 -83.515625 51.625 -83.515625 L 51.625 -69.4375 L 48.046875 -69.4375 C 32.773438 -69.4375 25.140625 -61.15625 25.140625 -44.59375 L 25.140625 0 L 11.53125 0 L 11.53125 -82.015625 L 25.140625 -82.015625 Z M 25.140625 -68.6875 "/></g></g></g></svg>