<svg xmlns="http://www.w3.org/2000/svg" xmlns:xlink="http://www.w3.org/1999/xlink" width="600" zoomAndPan="magnify" viewBox="0 0 450 449.999984" height="600" preserveAspectRatio="xMidYMid meet" version="1.0"><path stroke-linecap="round" transform="matrix(0.75, -0.000000000000000558, 0.000000000000000558, 0.75, 36.352304, 129.504132)" fill="none" stroke-linejoin="miter" d="M 21.499013 21.499701 L 125.332354 21.499701 " stroke="#000000" stroke-width="43" stroke-opacity="1" stroke-miterlimit="4"/><path stroke-linecap="round" transform="matrix(0.75, -0.00000000000000093, 0.00000000000000093, 0.75, 158.535113, 129.504132)" fill="none" stroke-linejoin="miter" d="M 21.500059 21.499701 L 66.197979 21.499701 " stroke="#000000" stroke-width="43" stroke-opacity="1" stroke-miterlimit="4"/><path stroke-linecap="round" transform="matrix(0.75, 0.000000000000000361, -0.000000000000000361, 0.75, 236.402246, 129.504132)" fill="none" stroke-linejoin="miter" d="M 21.500132 21.499701 L 214.828272 21.499701 " stroke="#000000" stroke-width="43" stroke-opacity="1" stroke-miterlimit="4"/><path stroke-linecap="round" transform="matrix(0.75, -0.000000000000000186, 0.000000000000000186, 0.75, 36.352304, 182.418034)" fill="none" stroke-linejoin="miter" d="M 21.499013 21.499915 L 481.561549 21.499915 " stroke="#000000" stroke-width="43" stroke-opacity="1" stroke-miterlimit="4"/><path stroke-linecap="round" transform="matrix(0.75, 0.000000000000000407, -0.000000000000000407, 0.75, 36.352304, 235.331934)" fill="none" stroke-linejoin="miter" d="M 21.499013 21.500132 L 397.077167 21.500132 " stroke="#000000" stroke-width="43" stroke-opacity="1" stroke-miterlimit="4"/><path stroke-linecap="round" transform="matrix(0.75, 0, 0, 0.75, 359.998955, 235.331934)" fill="none" stroke-linejoin="miter" d="M 21.501395 21.500132 L 50.032647 21.500132 " stroke="#000000" stroke-width="43" stroke-opacity="1" stroke-miterlimit="4"/><path stroke-linecap="round" transform="matrix(0.75, 0, 0, 0.75, 183.096995, 288.245807)" fill="none" stroke-linejoin="miter" d="M 21.500884 21.500384 L 284.980071 21.500384 " stroke="#000000" stroke-width="43" stroke-opacity="1" stroke-miterlimit="4"/><path stroke-linecap="round" transform="matrix(0.75, 0, 0, 0.75, 36.352304, 288.245807)" fill="none" stroke-linejoin="miter" d="M 21.499013 21.500384 L 158.889649 21.500384 " stroke="#000000" stroke-width="43" stroke-opacity="1" stroke-miterlimit="4"/></svg>